<svg width="179" height="124" viewBox="0 0 179 124" fill="none" xmlns="http://www.w3.org/2000/svg">
<path d="M86.9565 123L84.4348 109H70.5652L68.0435 123M86.9565 123H68.0435M86.9565 123H92M68.0435 123H63" stroke="white"/>
<path d="M1.25689 113.618L3.96927 80.1652H39.2981L42.0105 113.618L42.7252 122.433H0.542181L1.25689 113.618Z" stroke="white"/>
<path d="M29.2348 89.0203V77.9111C29.2348 73.7132 25.8317 70.3101 21.6337 70.3101V70.3101C17.4358 70.3101 14.0327 73.7132 14.0327 77.9111V89.0203" stroke="#0091C7"/>
<circle cx="14.1971" cy="88.5635" r="2.02816" fill="#EC1C24"/>
<circle cx="29.0702" cy="88.5635" r="2.02816" fill="#EC1C24"/>
<mask id="path-6-inside-1" fill="white">
<path fill-rule="evenodd" clip-rule="evenodd" d="M153.893 19.47C151.642 15.0373 147.039 12 141.727 12C134.196 12 128.091 18.1052 128.091 25.6364C128.091 26.1485 128.119 26.654 128.174 27.1515H126.273C122.256 27.1515 119 30.4076 119 34.4242C119 38.4409 122.256 41.697 126.273 41.697H171.727C175.744 41.697 179 38.4409 179 34.4242C179 30.4076 175.744 27.1515 171.727 27.1515H171.055C170.452 21.697 165.827 17.4545 160.212 17.4545C157.857 17.4545 155.676 18.2009 153.893 19.47Z"/>
</mask>
<path d="M153.893 19.47L153.001 19.9228L153.527 20.9579L154.473 20.2847L153.893 19.47ZM128.174 27.1515V28.1515H129.291L129.168 27.0416L128.174 27.1515ZM171.055 27.1515L170.061 27.2614L170.159 28.1515H171.055V27.1515ZM154.785 19.0172C152.37 14.2619 147.43 11 141.727 11V13C146.648 13 150.914 15.8127 153.001 19.9228L154.785 19.0172ZM141.727 11C133.644 11 127.091 17.5529 127.091 25.6364H129.091C129.091 18.6575 134.748 13 141.727 13V11ZM127.091 25.6364C127.091 26.1853 127.121 26.7275 127.18 27.2614L129.168 27.0416C129.117 26.5806 129.091 26.1117 129.091 25.6364H127.091ZM128.174 26.1515H126.273V28.1515H128.174V26.1515ZM126.273 26.1515C121.704 26.1515 118 29.8553 118 34.4242H120C120 30.9599 122.808 28.1515 126.273 28.1515V26.1515ZM118 34.4242C118 38.9931 121.704 42.697 126.273 42.697V40.697C122.808 40.697 120 37.8886 120 34.4242H118ZM126.273 42.697H171.727V40.697H126.273V42.697ZM171.727 42.697C176.296 42.697 180 38.9931 180 34.4242H178C178 37.8886 175.192 40.697 171.727 40.697V42.697ZM180 34.4242C180 29.8553 176.296 26.1515 171.727 26.1515V28.1515C175.192 28.1515 178 30.9599 178 34.4242H180ZM171.727 26.1515H171.055V28.1515H171.727V26.1515ZM160.212 18.4545C165.312 18.4545 169.513 22.308 170.061 27.2614L172.049 27.0416C171.39 21.0861 166.343 16.4545 160.212 16.4545V18.4545ZM154.473 20.2847C156.092 19.1322 158.072 18.4545 160.212 18.4545V16.4545C157.642 16.4545 155.26 17.2697 153.313 18.6553L154.473 20.2847Z" fill="white" mask="url(#path-6-inside-1)"/>
<path d="M149.5 45V79.5H123.5" stroke="white"/>
<path d="M35.8669 27.6834C35.8669 33.3076 31.3076 37.8669 25.6834 37.8669C20.0593 37.8669 15.5 33.3076 15.5 27.6834C15.5 22.0593 20.0593 17.5 25.6834 17.5C31.3076 17.5 35.8669 22.0593 35.8669 27.6834Z" stroke="white"/>
<path d="M33.7185 27.5468C33.7185 32.0599 30.0599 35.7185 25.5468 35.7185C21.0336 35.7185 17.375 32.0599 17.375 27.5468C17.375 23.0336 21.0336 19.375 25.5468 19.375C30.0599 19.375 33.7185 23.0336 33.7185 27.5468Z" stroke="#EC1C24" stroke-width="0.75"/>
<path d="M27.6055 29.7227C27.6055 29.2891 27.4648 28.9355 27.1836 28.6621C26.9023 28.3848 26.4062 28.123 25.6953 27.877C24.8125 27.5996 24.1934 27.2715 23.8379 26.8926C23.4824 26.5098 23.3047 26.0156 23.3047 25.4102C23.3047 24.7734 23.5 24.2578 23.8906 23.8633C24.2812 23.4648 24.8125 23.2383 25.4844 23.1836V22H26.082V23.1836C26.7695 23.2461 27.3008 23.5039 27.6758 23.957C28.0547 24.4102 28.2441 25.0254 28.2441 25.8027H27.5469C27.5469 25.1895 27.3867 24.7031 27.0664 24.3438C26.75 23.9805 26.3164 23.7988 25.7656 23.7988C25.2109 23.7988 24.7773 23.9453 24.4648 24.2383C24.1562 24.5273 24.002 24.9141 24.002 25.3984C24.002 25.8672 24.1445 26.2344 24.4297 26.5C24.7148 26.7617 25.1992 27.0098 25.8828 27.2441C26.5703 27.4746 27.0684 27.6973 27.377 27.9121C27.6895 28.123 27.9219 28.375 28.0742 28.668C28.2305 28.957 28.3086 29.3047 28.3086 29.7109C28.3086 30.3516 28.1074 30.8691 27.7051 31.2637C27.3066 31.6543 26.7578 31.877 26.0586 31.9316V33.0449H25.4668V31.9375C24.6816 31.8867 24.0742 31.6406 23.6445 31.1992C23.2148 30.7539 23 30.1465 23 29.377H23.7031C23.7031 29.9863 23.8809 30.4648 24.2363 30.8125C24.5918 31.1562 25.0879 31.3281 25.7246 31.3281C26.2793 31.3281 26.7305 31.1797 27.0781 30.8828C27.4297 30.5859 27.6055 30.1992 27.6055 29.7227Z" fill="#0091C7"/>
<path d="M59 4.5H96" stroke="#0091C7"/>
<path d="M59 9H96" stroke="#0091C7"/>
<path d="M59.5 3C59.5 1.61929 60.6193 0.5 62 0.5H93C94.3807 0.5 95.5 1.61929 95.5 3V4.5V9V21C95.5 22.3807 94.3807 23.5 93 23.5H62C60.6193 23.5 59.5 22.3807 59.5 21V9V4.5V3Z" stroke="white"/>
<rect x="84" y="18" width="9" height="3" fill="#EC1C24"/>
<path d="M25.5 40V44.5H49.5V49" stroke="white"/>
<path d="M77 27V48.5" stroke="white"/>
<rect x="34" y="77" width="14" height="34" fill="#1A1A1A"/>
<path d="M64 52H76V69C76 72.3137 73.3137 75 70 75V75C66.6863 75 64 72.3137 64 69V52Z" stroke="white"/>
<path d="M37 52H49V69C49 72.3137 46.3137 75 43 75V75C39.6863 75 37 72.3137 37 69V52Z" stroke="white"/>
<path d="M50 52H63V68.5C63 72.0899 60.0899 75 56.5 75V75C52.9101 75 50 72.0899 50 68.5V52Z" stroke="#0091C7"/>
<path d="M77 52H90V68.5C90 72.0899 87.0899 75 83.5 75V75C79.9101 75 77 72.0899 77 68.5V52Z" stroke="#0091C7"/>
<path d="M91 52H104V68.5C104 72.0899 101.09 75 97.5 75V75C93.9101 75 91 72.0899 91 68.5V52Z" stroke="white"/>
<path d="M105 52H118V68.5C118 72.0899 115.09 75 111.5 75V75C107.91 75 105 72.0899 105 68.5V52Z" stroke="#0091C7"/>
<path d="M36 101.565V109H119V101.565M36 101.565V52C63.6667 52 91.3333 52 119 52V101.565M36 101.565H103M119 101.565H109M105 101.565H107" stroke="white"/>
</svg>
