<svg width="62" height="42" viewBox="0 0 62 42" fill="none" xmlns="http://www.w3.org/2000/svg">
<mask id="mask0" mask-type="alpha" maskUnits="userSpaceOnUse" x="33" y="11" width="20" height="21">
<rect width="14.0475" height="13.3785" transform="matrix(-0.707107 0.707107 0.707107 0.707107 42.9331 11.6666)" fill="#C4C4C4"/>
</mask>
<g mask="url(#mask0)">
<circle cx="33.3847" cy="21.6388" r="5.31259" transform="rotate(135 33.3847 21.6388)" stroke="white"/>
<circle cx="33.3845" cy="21.6396" r="8.21888" transform="rotate(135 33.3845 21.6396)" stroke="#EC1C24"/>
</g>
<mask id="mask1" mask-type="alpha" maskUnits="userSpaceOnUse" x="8" y="11" width="20" height="21">
<rect x="17.5713" y="11.6666" width="14.0475" height="13.3785" transform="rotate(45 17.5713 11.6666)" fill="#C4C4C4"/>
</mask>
<g mask="url(#mask1)">
<circle r="5.31259" transform="matrix(0.707107 0.707107 0.707107 -0.707107 27.1197 21.6388)" stroke="white"/>
<circle r="8.21888" transform="matrix(0.707107 0.707107 0.707107 -0.707107 27.1199 21.6396)" stroke="#EC1C24"/>
</g>
<path d="M33.8887 21.6138L27.6665 17.8889V25L33.8887 21.6138Z" stroke="#0091C7"/>
<path d="M60.5556 11.6667V1H1V41H60.5556V19.6667M60.5556 14.3333V17" stroke="white"/>
<path d="M1 8.11108L60.5556 8.11108" stroke="white"/>
<path d="M1 33.8889L60.5556 33.8889" stroke="white"/>
<line x1="9.5" y1="1" x2="9.5" y2="8.11111" stroke="white"/>
<line x1="18.3887" y1="1" x2="18.3887" y2="8.11111" stroke="white"/>
<line x1="27.2778" y1="1" x2="27.2778" y2="8.11111" stroke="white"/>
<line x1="36.1665" y1="1" x2="36.1665" y2="8.11111" stroke="white"/>
<line x1="45.0557" y1="1" x2="45.0557" y2="8.11111" stroke="white"/>
<line x1="53.9443" y1="1" x2="53.9443" y2="8.11111" stroke="white"/>
<line x1="9.5" y1="33.8889" x2="9.5" y2="41" stroke="white"/>
<line x1="18.3887" y1="33.8889" x2="18.3887" y2="41" stroke="white"/>
<line x1="27.2778" y1="33.8889" x2="27.2778" y2="41" stroke="white"/>
<line x1="36.1665" y1="33.8889" x2="36.1665" y2="41" stroke="white"/>
<line x1="45.0557" y1="33.8889" x2="45.0557" y2="41" stroke="white"/>
<line x1="53.9443" y1="33.8889" x2="53.9443" y2="41" stroke="white"/>
</svg>
