<svg width="57" height="46" viewBox="0 0 57 46" fill="none" xmlns="http://www.w3.org/2000/svg">
<path d="M20.9588 10.7294C20.9588 12.5244 20.3244 14.4903 19.3357 16.4545C18.3498 18.4133 17.0297 20.3348 15.7005 22.0314C14.3725 23.7266 13.0433 25.1875 12.0455 26.2249C11.5469 26.7434 11.1318 27.1553 10.8419 27.4371C10.802 27.4759 10.7645 27.5122 10.7294 27.546C10.6944 27.5122 10.6568 27.4759 10.6169 27.4371C10.327 27.1553 9.91192 26.7434 9.41331 26.2249C8.41554 25.1875 7.08628 23.7266 5.75831 22.0314C4.42915 20.3348 3.10904 18.4133 2.12308 16.4545C1.13441 14.4903 0.5 12.5244 0.5 10.7294C0.5 5.07986 5.07986 0.5 10.7294 0.5C16.379 0.5 20.9588 5.07986 20.9588 10.7294Z" stroke="white"/>
<circle cx="10.7296" cy="9.59992" r="4.01765" stroke="#EC1C24"/>
<path d="M56.3232 18.7058C56.3232 21.1023 55.477 23.7146 54.1707 26.3098C52.8671 28.8996 51.1234 31.4369 49.3708 33.6742C47.6192 35.91 45.8665 37.8363 44.551 39.2041C43.8936 39.8876 43.3461 40.4309 42.9636 40.8028C42.8667 40.897 42.7804 40.9802 42.7055 41.0519C42.6307 40.9802 42.5444 40.897 42.4474 40.8028C42.0649 40.4309 41.5175 39.8876 40.86 39.2041C39.5446 37.8363 37.7918 35.91 36.0403 33.6742C34.2876 31.4369 32.544 28.8996 31.2404 26.3098C29.9341 23.7146 29.0879 21.1023 29.0879 18.7058C29.0879 11.185 35.1847 5.08813 42.7055 5.08813C50.2264 5.08813 56.3232 11.185 56.3232 18.7058Z" stroke="white"/>
<circle cx="42.7055" cy="17.2197" r="5.44427" stroke="#0091C7"/>
<path d="M10.9411 31.0588H25.0588C25.0588 34.5882 25.0588 37.9412 25.0588 37.9412H3.88232L3.88232 45H7M42.8823 45H13M9 45H11" stroke="white"/>
</svg>
