<svg width="49" height="51" viewBox="0 0 49 51" fill="none" xmlns="http://www.w3.org/2000/svg">
<path d="M32.5415 44.75V33.1471M47.3122 43.1875V36.7379V30.2883M32.5415 33.1471V28.8589L47.3122 26V30.2883M32.5415 33.1471L39.9269 31.7177M47.3122 30.2883L45.4659 30.6456M43.6196 31.003L41.7732 31.3604" stroke="white"/>
<path d="M33.1241 45.5425C33.5307 46.9408 32.4064 48.7039 30.2781 49.3227C28.1498 49.9416 26.2554 49.0562 25.8488 47.6578C25.4422 46.2595 26.5666 44.4964 28.6949 43.8776C30.8231 43.2588 32.7175 44.1442 33.1241 45.5425Z" stroke="white"/>
<path d="M47.4171 42.6834C47.8236 44.0817 46.6993 45.8448 44.571 46.4636C42.4427 47.0824 40.5484 46.197 40.1418 44.7987C39.7352 43.4004 40.8595 41.6373 42.9878 41.0184C45.1161 40.3996 47.0105 41.285 47.4171 42.6834Z" stroke="white"/>
<path d="M46.3126 23.6563C46.3126 11.1436 36.169 1 23.6563 1C11.1436 1 1 11.1436 1 23.6563C1 36.169 11.1436 46.3126 23.6563 46.3126" stroke="white"/>
<path d="M33.8125 23.6563C33.8125 18.0471 29.2654 13.5 23.6563 13.5C18.0471 13.5 13.5 18.0471 13.5 23.6563C13.5 29.2654 18.0471 33.8125 23.6563 33.8125" stroke="#EC1C24"/>
<circle cx="23.6563" cy="23.6563" r="3.40625" stroke="#0091C7"/>
</svg>
