<svg width="62" height="62" viewBox="0 0 62 62" fill="none" xmlns="http://www.w3.org/2000/svg">
<path d="M26.0785 36.9875L42.9583 20.1077" stroke="white"/>
<path d="M39.8146 17.144L53.4225 6.802L56.264 9.64352L45.922 23.2514L39.8146 17.144Z" stroke="#0091C7"/>
<rect x="23.3589" y="33.4969" width="8.78281" height="25.0875" transform="rotate(45 23.3589 33.4969)" stroke="#EC1C24"/>
<path d="M25.9275 21.3158L23.1346 18.5229C24.8717 14.8866 24.2343 10.3993 21.2224 7.38739C18.3448 4.50984 14.1207 3.79966 10.5784 5.25687L16.4335 11.112L15.9014 15.901L11.1124 16.4331L5.25711 10.5779C3.79961 14.1202 4.50971 18.3447 7.38741 21.2224C10.3993 24.2343 14.8866 24.8717 18.5229 23.1346L38.8654 43.477C37.1283 47.1134 37.7657 51.6007 40.7776 54.6126C43.6552 57.4901 47.8793 58.2003 51.4216 56.7431L45.5665 50.888L46.0986 46.0989L50.8876 45.5668L56.7429 51.4221C58.2004 47.8798 57.4903 43.6553 54.6126 40.7776C51.6007 37.7657 47.1134 37.1283 43.4771 38.8654L32.845 28.2333M28.2333 23.6216L30.5392 25.9275" stroke="white"/>
</svg>
