<svg width="77" height="65" viewBox="0 0 77 65" fill="none" xmlns="http://www.w3.org/2000/svg">
<path d="M4.48814 1H1V35.8814H14.3958C13.9511 41.5181 12.6997 46.5593 10.6418 46.5593C13.3555 46.5593 18.1732 45.842 23.4637 35.8814H53.3222V1H20.1848M9.72036 1H14.9526" stroke="white"/>
<mask id="mask0" mask-type="alpha" maskUnits="userSpaceOnUse" x="23" y="17" width="54" height="48">
<path d="M75.995 18.4407H76.495V17.9407H75.995V18.4407ZM23.6729 18.4407V17.9407H23.1729V18.4407H23.6729ZM75.995 53.3222V53.8222H76.495V53.3222H75.995ZM62.5992 53.3222V52.8222H62.0582L62.1007 53.3615L62.5992 53.3222ZM53.5313 53.3222L53.9729 53.0876L53.8319 52.8222H53.5313V53.3222ZM23.6729 53.3222H23.1729V53.8222H23.6729V53.3222ZM75.995 17.9407H23.6729V18.9407H75.995V17.9407ZM76.495 53.3222V18.4407H75.495V53.3222H76.495ZM62.5992 53.8222H75.995V52.8222H62.5992V53.8222ZM66.3532 63.5C66.0663 63.5 65.7329 63.3283 65.3634 62.8274C64.9964 62.33 64.6532 61.5827 64.3477 60.6231C63.7386 58.7102 63.3186 56.0836 63.0976 53.2828L62.1007 53.3615C62.3245 56.1974 62.7526 58.9097 63.3948 60.9266C63.715 61.9319 64.0983 62.7971 64.5587 63.4211C65.0164 64.0416 65.6111 64.5 66.3532 64.5V63.5ZM53.0898 53.5567C55.7603 58.5847 58.3383 61.3312 60.6372 62.8163C62.9488 64.3096 64.9362 64.5 66.3532 64.5V63.5C65.0565 63.5 63.2782 63.3318 61.1799 61.9763C59.0689 60.6127 56.5928 58.0203 53.9729 53.0876L53.0898 53.5567ZM23.6729 53.8222H53.5313V52.8222H23.6729V53.8222ZM23.1729 18.4407V53.3222H24.1729V18.4407H23.1729Z" fill="white"/>
</mask>
<g mask="url(#mask0)">
<path d="M56.8101 41.1137V16.6967H77.739V65.5307H21.9287V41.1137H56.8101Z" fill="white"/>
</g>
<circle cx="16.6967" cy="18.4407" r="1.74407" fill="#EC1C24"/>
<circle cx="27.1611" cy="18.4407" r="1.74407" fill="#EC1C24"/>
<circle cx="37.6254" cy="18.4407" r="1.74407" fill="#0091C7"/>
</svg>
