<svg width="55" height="49" viewBox="0 0 55 49" fill="none" xmlns="http://www.w3.org/2000/svg">
<path d="M21 48V27H8V48" stroke="#EC1C24"/>
<path d="M4 23V48H51V23" stroke="white"/>
<rect x="4" y="1" width="47" height="5" stroke="white"/>
<path d="M54 18.1765L51 6H39.25M54 18.1765V23.5H17M54 18.1765H40.75M1 18.1765V23.5H8M1 18.1765L4 6H15.75M1 18.1765H14.25M11 23.5H14M27.5 18.1765V6M27.5 18.1765H14.25M27.5 18.1765H40.75M27.5 6H15.75M27.5 6H39.25M15.75 6L14.25 18.1765M40.75 18.1765L39.25 6" stroke="white"/>
<rect x="28" y="27" width="16" height="10" stroke="#0091C7"/>
</svg>
