<svg width="56" height="49" viewBox="0 0 56 49" fill="none" xmlns="http://www.w3.org/2000/svg">
<mask id="mask0" mask-type="alpha" maskUnits="userSpaceOnUse" x="1" y="0" width="55" height="49">
<path d="M28.1131 6.00527L28.5 6.47791L28.8869 6.00527C31.6385 2.64388 35.8187 0.5 40.5 0.5C48.7843 0.5 55.5 7.21573 55.5 15.5C55.5 18.5869 53.8524 22.195 51.2852 25.9194C48.7289 29.6279 45.3114 33.3804 41.8801 36.7417C38.451 40.1009 35.0201 43.0578 32.4455 45.1756C31.1585 46.2342 30.0863 47.0825 29.3364 47.6657C28.9614 47.9573 28.6671 48.1826 28.4668 48.3348C28.4646 48.3365 28.4623 48.3382 28.4601 48.3398C28.4571 48.3375 28.454 48.3352 28.4509 48.3328C28.2491 48.1792 27.9524 47.9519 27.5747 47.6577C26.8192 47.0692 25.7394 46.2134 24.4443 45.1457C21.8533 43.0096 18.404 40.0281 14.9661 36.6437C11.5641 33.2946 8.18527 29.5626 5.6603 25.8737C3.12481 22.1694 1.5 18.5793 1.5 15.5C1.5 7.21573 8.21573 0.5 16.5 0.5C21.1813 0.5 25.3615 2.64388 28.1131 6.00527Z" stroke="white"/>
</mask>
<g mask="url(#mask0)">
<path d="M17 35.5V16.5H42V22H57V-1H0V49.5H40.5V35.5H17Z" fill="white"/>
</g>
<path d="M18 26.0952H24.7572L28.6184 33.7143L35.8582 18L44.546 38L49.3726 26.0952H55.6471" stroke="#EC1C24"/>
<circle cx="18" cy="26" r="2" fill="#0091C7"/>
<rect x="0.189453" y="8.06372" width="3" height="6" transform="rotate(-52.688 0.189453 8.06372)" fill="black"/>
<rect x="3.82666" y="3.29175" width="3" height="6" transform="rotate(-52.688 3.82666 3.29175)" fill="black"/>
</svg>
