<svg width="39" height="51" viewBox="0 0 39 51" fill="none" xmlns="http://www.w3.org/2000/svg">
<path d="M5.28564 21.4285V15.7142L8.14279 11.4285" stroke="#0091C7"/>
<path d="M18.3477 17.5449L19.2474 19.5444M19.2474 19.5444L18.3477 21.4285M19.2474 19.5444H21.0469M21.9466 21.4285L21.0469 19.5444M21.0469 19.5444L21.9466 17.5449" stroke="#EC1C24"/>
<path d="M26.4451 7.61033C26.4451 11.5605 23.4012 14.7207 19.6972 14.7207C15.9931 14.7207 12.9492 11.5605 12.9492 7.61033C12.9492 3.66014 15.9931 0.5 19.6972 0.5C23.4012 0.5 26.4451 3.66014 26.4451 7.61033Z" stroke="white"/>
<path d="M29.1198 21.4285L26.6488 15.9453H13.4707L11 21.4285" stroke="white"/>
<path d="M13.3994 16.1953L16.7735 18.8945L20.1475 16.1953L23.5215 18.8945L26.8956 16.1953" stroke="white"/>
<path d="M36.7143 28.5713L38.1429 21.4285H1L2.42857 28.5713H36.7143Z" stroke="white"/>
<path d="M30.9998 50.0001H35.2855V28.5715H3.85693V50.0001H22.4284M28.1427 50.0001H25.2855" stroke="white"/>
<rect x="8.14307" y="31.4285" width="22.8571" height="2.85714" fill="#EC1C24"/>
</svg>
