<svg width="92" height="61" viewBox="0 0 92 61" fill="none" xmlns="http://www.w3.org/2000/svg">
<line x1="45.5" y1="61" x2="45.5" y2="47.1635" stroke="white"/>
<line x1="12" y1="60.5" x2="79" y2="60.5" stroke="white"/>
<line x1="12.5" y1="60.8364" x2="12.5" y2="46.9999" stroke="white"/>
<line x1="78.5" y1="61" x2="78.5" y2="47.1635" stroke="white"/>
<path d="M10.5554 1H1V44.2392H25V1H20.0667M13.7111 1H16.9192" stroke="white"/>
<rect x="5.80005" y="7.91797" width="14.4" height="1.72957" fill="#EC1C24"/>
<rect x="5.80005" y="13.1069" width="14.4" height="1.72957" fill="#0091C7"/>
<rect x="18.6003" y="35.5911" width="1.6" height="3.45913" rx="0.8" fill="#0091C7"/>
<path d="M43.5554 1H34V44.2392H58V1H53.0667M46.7111 1H49.9192" stroke="white"/>
<rect x="38.8" y="7.91797" width="14.4" height="1.72957" fill="#EC1C24"/>
<rect x="38.8" y="13.1069" width="14.4" height="1.72957" fill="#0091C7"/>
<rect x="51.6003" y="35.5911" width="1.6" height="3.45913" rx="0.8" fill="#0091C7"/>
<path d="M76.5554 1H67V44.2392H91V1H86.0667M79.7111 1H82.9192" stroke="white"/>
<rect x="71.8" y="7.91797" width="14.4" height="1.72957" fill="#EC1C24"/>
<rect x="71.8" y="13.1069" width="14.4" height="1.72957" fill="#0091C7"/>
<rect x="84.6003" y="35.5911" width="1.6" height="3.45913" rx="0.8" fill="#0091C7"/>
</svg>
