<svg width="71" height="62" viewBox="0 0 71 62" fill="none" xmlns="http://www.w3.org/2000/svg">
<ellipse cx="14.1674" cy="8.40686" rx="3.24463" ry="3.40686" stroke="white"/>
<path d="M18.3583 20.1904L17.264 12.4519H11.4276L10.3333 20.1904" stroke="white"/>
<path d="M46.2281 33.4028L47.6846 36.6396M47.6846 36.6396L46.2281 40.6856M47.6846 36.6396H50.5977M52.0543 40.6856L50.5977 36.6396M50.5977 36.6396L52.0543 33.4028" stroke="#EC1C24"/>
<path d="M59.6466 17.32C59.6466 23.8713 54.5946 29.14 48.4133 29.14C42.232 29.14 37.1799 23.8713 37.1799 17.32C37.1799 10.7687 42.232 5.5 48.4133 5.5C54.5946 5.5 59.6466 10.7687 59.6466 17.32Z" stroke="white"/>
<path d="M63.6666 40.6452L59.6666 30.8135H38.3333L34.3333 40.6452" stroke="white"/>
<path d="M38.2172 31.218L43.6792 35.5877L49.1413 31.218L54.6034 35.5877L60.0654 31.218" stroke="white"/>
<path d="M35.6667 49H70.3333V41M35.6667 49H1V41M35.6667 49V61M35.6667 61H50.3333M35.6667 61H21M27.6667 1H1V19.6667M27.6667 1H35.6667H53M27.6667 1V19.6667H1M1 19.6667V25V41M70.3333 41V25V1H65M70.3333 41H1M61 1H57" stroke="white"/>
<circle cx="35.6667" cy="45.0001" r="1.33333" fill="#0091C7"/>
</svg>
