<svg width="58" height="86" viewBox="0 0 58 86" fill="none" xmlns="http://www.w3.org/2000/svg">
<path d="M26 39L28 43.4444M28 43.4444L26 49M28 43.4444H32M34 49L32 43.4444M32 43.4444L34 39" stroke="#EC1C24"/>
<path d="M44.6111 16.9167C44.6111 26.0066 37.5991 33.3333 29 33.3333C20.401 33.3333 13.3889 26.0066 13.3889 16.9167C13.3889 7.82672 20.401 0.5 29 0.5C37.5991 0.5 44.6111 7.82672 44.6111 16.9167Z" stroke="white"/>
<path d="M49.9448 48.9446L44.4523 35.4446H15.1594L9.66699 48.9446" stroke="white"/>
<path d="M4.96154 78.9411H9.5V77.9411H4.89291L0.579553 48.8335H57.4204L53.1071 77.9411H19.5V78.9411H53.0385V84.8891H4.96154V78.9411ZM13 78.9411H16V77.9411H13V78.9411Z" stroke="white"/>
<path d="M15 36L22.5 42L30 36L37.5 42L45 36" stroke="white"/>
<circle cx="29.0001" cy="62.8333" r="3.22222" fill="#0091C7"/>
</svg>
