<svg width="43" height="58" viewBox="0 0 43 58" fill="none" xmlns="http://www.w3.org/2000/svg">
<rect x="26" y="47.999" width="2.00015" height="2.00015" fill="#EC1C24"/>
<rect x="28.0005" y="47.999" width="2.00015" height="2.00015" fill="#EC1C24"/>
<rect x="28.0005" y="46" width="2.00015" height="2.00015" fill="#EC1C24"/>
<rect x="28.0005" y="50.0005" width="2.00015" height="2.00015" fill="#EC1C24"/>
<rect x="30" y="47.999" width="2.00015" height="2.00015" fill="#EC1C24"/>
<mask id="mask0" mask-type="alpha" maskUnits="userSpaceOnUse" x="1" y="4" width="30" height="54">
<ellipse cx="15.1252" cy="16.6625" rx="11.1071" ry="11.6625" stroke="white"/>
<path d="M25.7256 30.5093H5.74614L2 56.9998H29.4717L25.7256 30.5093Z" stroke="white"/>
</mask>
<g mask="url(#mask0)">
<path d="M28 16V35H14V62H-1V16H28Z" fill="white"/>
</g>
<path d="M16 2.0408V1H14V2.0408M16 2.0408C21.7745 2.51385 26.4945 7.04971 27.7008 13M16 2.0408V6M14 2.0408C8.22546 2.51385 3.50549 7.04971 2.29919 13M14 2.0408V6M2.29919 13H1V16H29V13H27.7008M2.29919 13H6M27.7008 13H24" stroke="#0091C7"/>
<path d="M22 38H18V40H22V38Z" fill="#EC1C24"/>
<path d="M40 38H36V40H40V38Z" fill="#0091C7"/>
<path d="M33 40V37H25V40" stroke="white"/>
<path d="M40.1429 57H42V40H16V57H36.4286M38.9048 57H37.6667" stroke="white"/>
</svg>
