<svg width="91" height="76" viewBox="0 0 91 76" fill="none" xmlns="http://www.w3.org/2000/svg">
<path d="M67 1H1V64.0351H65M70.5 1H73.5M77 1H86.6623V42.9146" stroke="white"/>
<ellipse cx="6.421" cy="6.29111" rx="1.08433" ry="1.14609" fill="#EC1C24"/>
<ellipse cx="10.7582" cy="6.29111" rx="1.08433" ry="1.14609" fill="#EC1C24"/>
<ellipse cx="15.097" cy="6.29111" rx="1.08433" ry="1.14609" fill="#EC1C24"/>
<rect x="54.1328" y="28.0669" width="24.9396" height="2.29219" fill="#EC1C24"/>
<rect x="40" y="34.2939" width="39.036" height="2.29219" fill="#0091C7"/>
<rect x="68.729" y="56.0728" width="21.771" height="18.4836" stroke="white"/>
<rect x="78.4871" y="66.3877" width="2.253" height="4.73046" rx="1.1265" stroke="#0091C7"/>
<path d="M73.6504 55.5729L73.6504 51.7641C73.6504 48.1709 76.5632 45.2581 80.1564 45.2581V45.2581C83.7495 45.2581 86.6624 48.1709 86.6624 51.7641L86.6624 55.5729" stroke="white"/>
</svg>
