<svg width="74" height="71" viewBox="0 0 74 71" fill="none" xmlns="http://www.w3.org/2000/svg">
<path d="M35.4382 14.8V1H72.5258V70H35.4382V64.48" stroke="white"/>
<path d="M0.999933 29.2899C2.84986 27.3625 4.86589 25.7137 7 24.3433M47.3594 29.2899C39.2501 20.8411 27.9491 17.7442 17.5 19.9992M10.5 22.3923C11.541 21.8946 12.6018 21.4568 13.6777 21.0787" stroke="white"/>
<path d="M5.59039 34.9128C15.857 24.2165 32.5024 24.2165 42.769 34.9128" stroke="#0091C7"/>
<path d="M10.3876 41.5766C18.0048 33.6407 30.3546 33.6407 37.9717 41.5766" stroke="#EC1C24"/>
<path d="M28.3172 50.68C28.3172 52.7099 26.7429 54.32 24.8435 54.32C22.9442 54.32 21.3699 52.7099 21.3699 50.68C21.3699 48.6502 22.9442 47.04 24.8435 47.04C26.7429 47.04 28.3172 48.6502 28.3172 50.68Z" stroke="white"/>
</svg>
